<svg width="16" height="16" viewBox="0 0 16 16" fill="none" xmlns="http://www.w3.org/2000/svg">
<path d="M7.59626 2.42146C7.27581 2.12784 6.83518 1.96237 6.35611 2.0073C5.6034 2.07776 4.99454 2.67949 4.91646 3.42901C4.88764 3.70569 4.93025 3.96936 5.02754 4.20529C5.26892 4.79155 5.84971 5.20325 6.52631 5.19736C7.41744 5.18926 8.14847 4.42329 8.11399 3.5358C8.09675 3.09537 7.90069 2.70035 7.59626 2.42146Z" fill="url(#paint0_linear_440_2638)"/>
<path d="M3.5992 2.46074C3.28935 2.17694 2.86324 2.01687 2.40019 2.06033C1.6726 2.12858 1.08393 2.71017 1.00856 3.43465C0.980728 3.702 1.02186 3.95708 1.11595 4.18491C1.34945 4.75177 1.91078 5.14973 2.56472 5.14384C3.42605 5.13599 4.13294 4.39555 4.09945 3.53776C4.08294 3.11206 3.89329 2.7303 3.5992 2.46074Z" fill="url(#paint1_linear_440_2638)"/>
<path d="M14.2547 4.91604C13.7575 4.05096 13.0751 3.37102 12.2072 2.8752C11.3592 2.39134 10.4226 2.14432 9.39757 2.13312V4.6843C10.8084 4.70747 11.6748 5.40931 11.9957 6.79059L3.54323 6.78982C3.46607 7.182 3.42724 7.58869 3.42724 8.01066C3.42724 9.1495 3.69039 10.1735 4.21722 11.0829C4.74379 11.9923 5.47092 12.7056 6.39835 13.2235C7.32528 13.741 8.37509 14 9.54755 14C10.4824 14 11.3536 13.8225 12.1625 13.4678C12.9709 13.1128 13.6571 12.6248 14.221 12.0037L12.3293 10.229C11.6914 10.9685 10.7639 11.338 9.54755 11.338C8.74632 11.338 8.06748 11.146 7.51127 10.7612C6.95481 10.377 6.59508 9.82944 6.43182 9.1197H14.7775C14.8365 8.86835 14.8889 8.62821 14.9333 8.39876C14.9778 8.16957 15 7.9661 15 7.78885C15 6.73889 14.7517 5.78112 14.2547 4.91604Z" fill="url(#paint2_linear_440_2638)"/>
<defs>
<linearGradient id="paint0_linear_440_2638" x1="2.16117" y1="1.89196" x2="13.0673" y2="3.46161" gradientUnits="userSpaceOnUse">
<stop stop-color="#21EB57"/>
<stop offset="1" stop-color="#00FF99"/>
</linearGradient>
<linearGradient id="paint1_linear_440_2638" x1="2.16117" y1="1.89196" x2="13.0673" y2="3.46161" gradientUnits="userSpaceOnUse">
<stop stop-color="#21EB57"/>
<stop offset="1" stop-color="#00FF99"/>
</linearGradient>
<linearGradient id="paint2_linear_440_2638" x1="2.16117" y1="1.89196" x2="13.0673" y2="3.46161" gradientUnits="userSpaceOnUse">
<stop stop-color="#21EB57"/>
<stop offset="1" stop-color="#00FF99"/>
</linearGradient>
</defs>
</svg>
